<svg width="32" height="32" viewBox="0 0 32 32" fill="none" xmlns="http://www.w3.org/2000/svg">
  <path d="M16 2C8.82 2 3 7.82 3 15C3 22.18 8.82 28 16 28C23.18 28 29 22.18 29 15C29 7.82 23.18 2 16 2Z" fill="#795548" fill-opacity="0.1"/>
  <path d="M20 6H12C10.9 6 10 6.9 10 8V24C10 25.1 10.9 26 12 26H20C21.1 26 22 25.1 22 24V8C22 6.9 21.1 6 20 6Z" fill="#795548"/>
  <rect x="12" y="10" width="8" height="1" fill="white"/>
  <rect x="12" y="12" width="6" height="1" fill="white"/>
  <rect x="12" y="14" width="7" height="1" fill="white"/>
  <rect x="12" y="16" width="5" height="1" fill="white"/>
  <rect x="12" y="18" width="8" height="1" fill="white"/>
  <rect x="12" y="20" width="4" height="1" fill="white"/>
</svg>