<svg width="32" height="32" viewBox="0 0 32 32" fill="none" xmlns="http://www.w3.org/2000/svg">
  <path d="M16 2C8.82 2 3 7.82 3 15C3 22.18 8.82 28 16 28C23.18 28 29 22.18 29 15C29 7.82 23.18 2 16 2Z" fill="#FF5722" fill-opacity="0.1"/>
  <path d="M21.5 12H19.5V10C19.5 9.45 19.05 9 18.5 9H13.5C12.95 9 12.5 9.45 12.5 10V12H10.5C9.95 12 9.5 12.45 9.5 13V21C9.5 21.55 9.95 22 10.5 22H21.5C22.05 22 22.5 21.55 22.5 21V13C22.5 12.45 22.05 12 21.5 12ZM14.5 11H17.5V12H14.5V11ZM20.5 20H11.5V14H20.5V20Z" fill="#FF5722"/>
  <path d="M16 15.5C15.17 15.5 14.5 16.17 14.5 17C14.5 17.83 15.17 18.5 16 18.5C16.83 18.5 17.5 17.83 17.5 17C17.5 16.17 16.83 15.5 16 15.5Z" fill="#FF5722"/>
</svg>