<svg width="32" height="32" viewBox="0 0 32 32" fill="none" xmlns="http://www.w3.org/2000/svg">
  <path d="M16 2C8.82 2 3 7.82 3 15C3 22.18 8.82 28 16 28C23.18 28 29 22.18 29 15C29 7.82 23.18 2 16 2Z" fill="#E91E63" fill-opacity="0.1"/>
  <path d="M7 7V9H9L12.6 16.59L11.24 19.04C11.09 19.32 11 19.65 11 20C11 21.1 11.9 22 13 22H23V20H13.42C13.28 20 13.17 19.89 13.17 19.75L13.2 19.63L14.1 18H20.55C21.3 18 21.96 17.59 22.3 16.97L25.88 10.5C25.95 10.36 26 10.18 26 10C26 9.45 25.55 9 25 9H10.21L9.27 7H7ZM13 23C11.9 23 11 23.9 11 25C11 26.1 11.9 27 13 27C14.1 27 15 26.1 15 25C15 23.9 14.1 23 13 23ZM21 23C19.9 23 19 23.9 19 25C19 26.1 19.9 27 21 27C22.1 27 23 26.1 23 25C23 23.9 22.1 23 21 23Z" fill="#E91E63"/>
</svg>