<svg width="32" height="32" viewBox="0 0 32 32" fill="none" xmlns="http://www.w3.org/2000/svg">
  <path d="M16 2C8.82 2 3 7.82 3 15C3 22.18 8.82 28 16 28C23.18 28 29 22.18 29 15C29 7.82 23.18 2 16 2Z" fill="#3F51B5" fill-opacity="0.1"/>
  <path d="M23 11H21L19.5 7.5C19.09 6.66 18.28 6 17.39 6H14.61C13.72 6 12.91 6.66 12.5 7.5L11 11H9C8.45 11 8 11.45 8 12V20C8 20.55 8.45 21 9 21H10C10.55 21 11 21.45 11 22V23C11 23.55 11.45 24 12 24H20C20.55 24 21 23.55 21 23V22C21 21.45 21.45 21 22 21H23C23.55 21 24 20.55 24 20V12C24 11.45 23.55 11 23 11Z" fill="#3F51B5"/>
  <circle cx="12" cy="18" r="2" fill="white"/>
  <circle cx="20" cy="18" r="2" fill="white"/>
  <path d="M16 8L15 10H17L16 8Z" fill="white"/>
</svg>