<svg width="32" height="32" viewBox="0 0 32 32" fill="none" xmlns="http://www.w3.org/2000/svg">
  <path d="M16 2C8.82 2 3 7.82 3 15C3 22.18 8.82 28 16 28C23.18 28 29 22.18 29 15C29 7.82 23.18 2 16 2Z" fill="#FF9800" fill-opacity="0.1"/>
  <path d="M23 10H20L18.42 7.17C18.25 6.86 17.92 6.67 17.55 6.67H14.45C14.08 6.67 13.75 6.86 13.58 7.17L12 10H9C8.45 10 8 10.45 8 11V21C8 21.55 8.45 22 9 22H10V23C10 23.55 10.45 24 11 24H21C21.55 24 22 23.55 22 23V22H23C23.55 22 24 21.55 24 21V11C24 10.45 23.55 10 23 10Z" fill="#FF9800"/>
  <circle cx="16" cy="15.5" r="3.5" fill="white"/>
  <circle cx="16" cy="15.5" r="2" fill="#FF9800"/>
</svg>