<svg width="64" height="64" viewBox="0 0 64 64" fill="none" xmlns="http://www.w3.org/2000/svg">
  <!-- Main circle background -->
  <circle cx="32" cy="32" r="32" fill="url(#gradient)"/>
  
  <!-- Currency symbol -->
  <path d="M32 8C18.75 8 8 18.75 8 32C8 45.25 18.75 56 32 56C45.25 56 56 45.25 56 32C56 18.75 45.25 8 32 8Z" fill="#4CAF50"/>
  
  <!-- Dollar sign -->
  <path d="M30 16V20H26V24H30V36H26V40H30V44H34V40H38V36H34V24H38V20H34V16H30ZM30 24V36H34V24H30Z" fill="white"/>
  
  <!-- Accent elements -->
  <circle cx="42" cy="22" r="3" fill="#FF9800" fill-opacity="0.8"/>
  <circle cx="22" cy="42" r="2" fill="#FF9800" fill-opacity="0.6"/>
  
  <defs>
    <linearGradient id="gradient" x1="0%" y1="0%" x2="100%" y2="100%">
      <stop offset="0%" style="stop-color:#4CAF50;stop-opacity:1" />
      <stop offset="100%" style="stop-color:#388E3C;stop-opacity:1" />
    </linearGradient>
  </defs>
</svg>